<?xml version="1.0" encoding="UTF-8"?>
<svg width="1080" height="1920" xmlns="http://www.w3.org/2000/svg">
  <defs>
    <linearGradient id="bg" x1="0%" y1="0%" x2="0%" y2="100%">
      <stop offset="0%" style="stop-color:#1a1a2e;stop-opacity:1" />
      <stop offset="100%" style="stop-color:#16213e;stop-opacity:1" />
    </linearGradient>
    <linearGradient id="card" x1="0%" y1="0%" x2="0%" y2="100%">
      <stop offset="0%" style="stop-color:#2a2a4a;stop-opacity:1" />
      <stop offset="100%" style="stop-color:#1e1e3e;stop-opacity:1" />
    </linearGradient>
    <linearGradient id="icon-gradient" x1="0%" y1="0%" x2="100%" y2="100%">
      <stop offset="0%" style="stop-color:#6366f1;stop-opacity:1" />
      <stop offset="50%" style="stop-color:#8b5cf6;stop-opacity:1" />
      <stop offset="100%" style="stop-color:#ec4899;stop-opacity:1" />
    </linearGradient>
  </defs>
  
  <rect width="1080" height="1920" fill="url(#bg)"/>
  
  <rect x="0" y="0" width="1080" height="60" fill="#0f0f1a"/>
  <text x="540" y="40" font-family="Arial, sans-serif" font-size="20" fill="white" text-anchor="middle" font-weight="bold">9:41</text>
  <text x="980" y="40" font-family="Arial, sans-serif" font-size="16" fill="#888" text-anchor="end">🔋 87%</text>
  
  <rect x="0" y="60" width="1080" height="100" fill="#1a1a2e"/>
  <text x="540" y="110" font-family="Arial, sans-serif" font-size="24" fill="white" text-anchor="middle" font-weight="bold">Check-ins</text>
  
  <rect x="30" y="200" width="1020" height="160" rx="20" fill="url(#card)"/>
  <text x="60" y="250" font-family="Arial, sans-serif" font-size="22" fill="#6366f1">🔔</text>
  <text x="120" y="250" font-size="28" fill="white" font-weight="bold">Morning Motivation</text>
  <text x="120" y="290" font-size="16" fill="#aaa">Best Friend • 8:00 AM daily</text>
  <text x="120" y="320" font-size="16" fill="#6366f1" font-weight="bold">Active • Mon-Fri</text>
  
  <rect x="30" y="400" width="1020" height="160" rx="20" fill="url(#card)"/>
  <text x="60" y="450" fill="#ec4899">💕</text>
  <text x="120" y="450" font-size="28" fill="white" font-weight="bold">Evening Check-in</text>
  <text x="120" y="490" font-size="16" fill="#aaa">Girlfriend • 8:00 PM daily</text>
  <text x="120" y="520" font-size="16" fill="#ec4899" font-weight="bold">Active • Daily</text>
  
  <rect x="30" y="600" width="1020" height="160" rx="20" fill="url(#card)"/>
  <text x="60" y="650" fill="#ec4899">💪</text>
  <text x="120" y="650" font-size="28" fill="white" font-weight="bold">Weekend Wrap-up</text>
  <text x="120" y="690" font-size="16" fill="#aaa">Big Sister • Saturday 10:00 AM</text>
  <text x="120" y="720" font-size="16" fill="#ec4899" font-weight="bold">Active • Saturday</text>
  
  <rect x="30" y="800" width="1020" height="160" rx="20" fill="url(#card)"/>
  <text x="60" y="850" fill="#6366f1">👩</text>
  <text x="120" y="850" font-size="28" fill="white" font-weight="bold">Mom's Check-in</text>
  <text x="120" y="890" font-size="16" fill="#aaa">Mom • 9:00 PM daily</text>
  <text x="120" y="920" font-size="16" fill="#6366f1" font-weight="bold">Active • Daily</text>
  
  <rect x="30" y="1000" width="1020" height="160" rx="20" fill="url(#card)"/>
  <text x="60" y="1050" fill="#8b5cf6">🧠</text>
  <text x="120" y="1050" font-size="28" fill="white" font-weight="bold">Memory Reflection</text>
  <text x="120" y="1090" font-size="16" fill="#aaa">All Personas • Sunday 8:00 PM</text>
  <text x="120" y="1120" font-size="16" fill="#8b5cf6" font-weight="bold">Active • Weekly</text>
  
  <rect x="60" y="1180" width="960" height="80" rx="16" fill="url(#icon-gradient)" rx="16"/>
  <text x="540" y="1240" font-family="Arial, sans-serif" font-size="24" fill="white" text-anchor="middle" font-weight="bold">+ Add Check-in</text>
  
  <rect x="0" y="1880" width="1080" height="40" fill="#0f0f1a"/>
  <g font-family="Arial, sans-serif" font-size="20" fill="#6366f1">
    <text x="150" y="1905" text-anchor="middle">🏠</text>
    <text x="360" y="1905" text-anchor="middle">💬</text>
    <text x="540" y="1905" text-anchor="middle">🔔</text>
    <text x="720" y="1905" text-anchor="middle">🔔</text>
    <text x="930" y="1905" text-anchor="middle">👤</text>
  </g>
</svg>